<svg width="21" height="20" viewBox="0 0 21 20" fill="none" xmlns="http://www.w3.org/2000/svg">
<path fill-rule="evenodd" clip-rule="evenodd" d="M18.241 3.27967C17.0794 2.15147 15.7862 1.80245 14.5718 1.88712C13.3902 1.9695 12.3262 2.45765 11.549 2.92717C10.9361 3.29744 10.0637 3.29744 9.45081 2.92717C8.67363 2.45765 7.60954 1.96952 6.42797 1.88714C5.21357 1.80247 3.92041 2.15149 2.7588 3.27967C1.38743 4.61158 0.95718 6.25577 1.12995 7.91891C1.30073 9.56288 2.0579 11.2341 3.06774 12.7149C4.08029 14.1997 5.37371 15.5327 6.6713 16.5007C7.94036 17.4473 9.32114 18.125 10.4999 18.125C11.6787 18.125 13.0595 17.4473 14.3285 16.5007C15.6261 15.5327 16.9195 14.1997 17.9321 12.7149C18.9419 11.2341 19.6991 9.56288 19.8699 7.91891C20.0426 6.25577 19.6124 4.61158 18.241 3.27967ZM12.252 3.98271C12.9393 3.56751 13.79 3.19498 14.6676 3.13379C15.5125 3.07489 16.4231 3.29939 17.3039 4.15485C18.3567 5.17738 18.7053 6.43326 18.5637 7.79584C18.4202 9.17759 17.7699 10.6578 16.8314 12.034C15.8955 13.4063 14.6996 14.6361 13.5192 15.5166C12.3103 16.4184 11.2243 16.875 10.4999 16.875C9.77551 16.875 8.68958 16.4184 7.48062 15.5166C6.3002 14.6361 5.10431 13.4063 4.16846 12.034C3.22992 10.6578 2.57962 9.17759 2.43608 7.79584C2.29453 6.43326 2.6431 5.17739 3.69593 4.15486C4.57673 3.2994 5.48731 3.0749 6.33215 3.1338C7.20982 3.19499 8.06049 3.56752 8.74776 3.98272C9.78982 4.61226 11.21 4.61226 12.252 3.98271Z" fill="#AE34B9"/>
</svg>
