<svg width="21" height="20" viewBox="0 0 21 20" fill="none" xmlns="http://www.w3.org/2000/svg">
<path fill-rule="evenodd" clip-rule="evenodd" d="M5.50696 4.13796C3.17349 5.75258 2.00676 6.5599 1.54852 7.75242C1.51176 7.84808 1.4787 7.94499 1.44939 8.04296C1.08413 9.26425 1.52978 10.5705 2.42109 13.183C3.31239 15.7956 3.75804 17.1018 4.80729 17.8854C4.89147 17.9483 4.97803 18.0082 5.06681 18.065C6.17352 18.7732 7.61568 18.7732 10.5 18.7732C13.3843 18.7732 14.8265 18.7732 15.9332 18.065C16.022 18.0082 16.1085 17.9483 16.1927 17.8854C17.242 17.1018 17.6876 15.7956 18.5789 13.183C19.4702 10.5705 19.9159 9.26425 19.5506 8.04296C19.5213 7.94499 19.4883 7.84808 19.4515 7.75242C18.9932 6.5599 17.8265 5.75259 15.4931 4.13796C13.1596 2.52333 11.9929 1.71601 10.6604 1.66946C10.5535 1.66572 10.4465 1.66572 10.3396 1.66946C9.00715 1.71601 7.84042 2.52333 5.50696 4.13796ZM8.75 14.2247C8.38756 14.2247 8.09375 14.5045 8.09375 14.8497C8.09375 15.1949 8.38756 15.4747 8.75 15.4747H12.25C12.6124 15.4747 12.9062 15.1949 12.9062 14.8497C12.9062 14.5045 12.6124 14.2247 12.25 14.2247H8.75Z" fill="#AE34B9"/>
</svg>
