<svg width="21" height="18" viewBox="0 0 21 18" fill="none" xmlns="http://www.w3.org/2000/svg">
<path d="M17.7188 5.03075C18.8332 6.86909 19.3905 7.78826 19.4429 8.79342C19.45 8.93107 19.45 9.06899 19.4429 9.20664C19.3905 10.2118 18.8332 11.131 17.7188 12.9693C16.6044 14.8077 16.0471 15.7268 15.1593 16.2726C15.0377 16.3474 14.9123 16.4163 14.7836 16.4792C13.8434 16.9386 12.7289 16.9386 10.5 16.9386C8.27118 16.9386 7.15674 16.9386 6.21653 16.4792C6.08776 16.4163 5.96236 16.3474 5.84077 16.2726C4.95295 15.7268 4.39573 14.8077 3.2813 12.9693C2.16686 11.131 1.60965 10.2118 1.55725 9.20664C1.55007 9.06899 1.55007 8.93107 1.55725 8.79341C1.60965 7.78826 2.16686 6.86909 3.2813 5.03075C4.39574 3.1924 4.95295 2.27323 5.84077 1.72744C5.96236 1.65269 6.08776 1.58373 6.21653 1.52082C7.15674 1.06146 8.27118 1.06146 10.5 1.06146C12.7289 1.06146 13.8434 1.06146 14.7836 1.52082C14.9123 1.58373 15.0377 1.65269 15.1593 1.72744C16.0471 2.27323 16.6044 3.1924 17.7188 5.03075Z" stroke="#AE34B9" stroke-width="1.5"/>
<path d="M8.76409 8.25328C8.94177 7.84231 9.28444 7.51595 9.71596 7.34673L12.0582 6.42819C12.7774 6.14616 13.4966 6.83111 13.2005 7.51605L12.236 9.74678C12.0583 10.1577 11.7157 10.4841 11.2841 10.6533L8.94187 11.5719C8.22268 11.8539 7.50349 11.169 7.79962 10.484L8.76409 8.25328Z" stroke="#AE34B9" stroke-width="1.5"/>
</svg>
