<svg aria-hidden="true" style="position: absolute; width: 0; height: 0; overflow: hidden;" version="1.1" xmlns="http://www.w3.org/2000/svg">
  <symbol id="icon-home" viewBox="0 0 32 32">
    <title>home</title>
    <path d="M32 18.451l-16-12.42-16 12.42v-5.064l16-12.42 16 12.42zM28 18v12h-8v-8h-8v8h-8v-12l12-9z"></path>
  </symbol>

  <symbol id="shuffle" viewBox="0 0 16 16">
    <path d="M13.151.922a.75.75 0 1 0-1.06 1.06L13.109 3H11.16a3.75 3.75 0 0 0-2.873 1.34l-6.173 7.356A2.25 2.25 0 0 1 .39 12.5H0V14h.391a3.75 3.75 0 0 0 2.873-1.34l6.173-7.356a2.25 2.25 0 0 1 1.724-.804h1.947l-1.017 1.018a.75.75 0 0 0 1.06 1.06L15.98 3.75 13.15.922zM.391 3.5H0V2h.391c1.109 0 2.16.49 2.873 1.34L4.89 5.277l-.979 1.167-1.796-2.14A2.25 2.25 0 0 0 .39 3.5z"></path>
    <path d="m7.5 10.723.98-1.167.957 1.14a2.25 2.25 0 0 0 1.724.804h1.947l-1.017-1.018a.75.75 0 1 1 1.06-1.06l2.829 2.828-2.829 2.828a.75.75 0 1 1-1.06-1.06L13.109 13H11.16a3.75 3.75 0 0 1-2.873-1.34l-.787-.938z"></path>
  </symbol>

  <symbol id="prev" viewBox="0 0 16 16">
    <path d="M3.3 1a.7.7 0 0 1 .7.7v5.15l9.95-5.744a.7.7 0 0 1 1.05.606v12.575a.7.7 0 0 1-1.05.607L4 9.149V14.3a.7.7 0 0 1-.7.7H1.7a.7.7 0 0 1-.7-.7V1.7a.7.7 0 0 1 .7-.7h1.6z"></path>
  </symbol>

  <symbol id="next" viewBox="0 0 16 16">
    <path d="M12.7 1a.7.7 0 0 0-.7.7v5.15L2.05 1.107A.7.7 0 0 0 1 1.712v12.575a.7.7 0 0 0 1.05.607L12 9.149V14.3a.7.7 0 0 0 .7.7h1.6a.7.7 0 0 0 .7-.7V1.7a.7.7 0 0 0-.7-.7h-1.6z"></path>
  </symbol>

  <symbol id="play" viewBox="0 0 16 16">
    <path d="M3 1.713a.7.7 0 0 1 1.05-.607l10.89 6.288a.7.7 0 0 1 0 1.212L4.05 14.894A.7.7 0 0 1 3 14.288V1.713z"></path>
  </symbol>

  <symbol id="stop" viewBox="0 0 16 16">
    <path d="M2.7 1a.7.7 0 0 0-.7.7v12.6a.7.7 0 0 0 .7.7h2.6a.7.7 0 0 0 .7-.7V1.7a.7.7 0 0 0-.7-.7H2.7zm8 0a.7.7 0 0 0-.7.7v12.6a.7.7 0 0 0 .7.7h2.6a.7.7 0 0 0 .7-.7V1.7a.7.7 0 0 0-.7-.7h-2.6z"></path>
  </symbol>

  <symbol id="repeat" viewBox="0 0 16 16">
    <path d="M0 4.75A3.75 3.75 0 0 1 3.75 1h8.5A3.75 3.75 0 0 1 16 4.75v5a3.75 3.75 0 0 1-3.75 3.75H9.81l1.018 1.018a.75.75 0 1 1-1.06 1.06L6.939 12.75l2.829-2.828a.75.75 0 1 1 1.06 1.06L9.811 12h2.439a2.25 2.25 0 0 0 2.25-2.25v-5a2.25 2.25 0 0 0-2.25-2.25h-8.5A2.25 2.25 0 0 0 1.5 4.75v5A2.25 2.25 0 0 0 3.75 12H5v1.5H3.75A3.75 3.75 0 0 1 0 9.75v-5z"></path>
  </symbol>

  <symbol id="volume" viewBox="0 0 16 16">
    <path d="M9.741.85a.75.75 0 0 1 .375.65v13a.75.75 0 0 1-1.125.65l-6.925-4a3.642 3.642 0 0 1-1.33-4.967 3.639 3.639 0 0 1 1.33-1.332l6.925-4a.75.75 0 0 1 .75 0zm-6.924 5.3a2.139 2.139 0 0 0 0 3.7l5.8 3.35V2.8l-5.8 3.35zm8.683 4.29V5.56a2.75 2.75 0 0 1 0 4.88z"></path>
    <path d="M11.5 13.614a5.752 5.752 0 0 0 0-11.228v1.55a4.252 4.252 0 0 1 0 8.127v1.55z"></path>
  </symbol>

  <symbol id="unmute" viewBox="0 0 16 16">
    <path d="M13.86 5.47a.75.75 0 0 0-1.061 0l-1.47 1.47-1.47-1.47A.75.75 0 0 0 8.8 6.53L10.269 8l-1.47 1.47a.75.75 0 1 0 1.06 1.06l1.47-1.47 1.47 1.47a.75.75 0 0 0 1.06-1.06L12.39 8l1.47-1.47a.75.75 0 0 0 0-1.06z"></path>
    <path d="M10.116 1.5A.75.75 0 0 0 8.991.85l-6.925 4a3.642 3.642 0 0 0-1.33 4.967 3.639 3.639 0 0 0 1.33 1.332l6.925 4a.75.75 0 0 0 1.125-.649v-1.906a4.73 4.73 0 0 1-1.5-.694v1.3L2.817 9.852a2.141 2.141 0 0 1-.781-2.92c.187-.324.456-.594.78-.782l5.8-3.35v1.3c.45-.313.956-.55 1.5-.694V1.5z"></path>
  </symbol>

  <symbol id="like" viewBox="0 0 24 24">
    <path d="M5.21 1.57a6.757 6.757 0 0 1 6.708 1.545.124.124 0 0 0 .165 0 6.741 6.741 0 0 1 5.715-1.78l.004.001a6.802 6.802 0 0 1 5.571 5.376v.003a6.689 6.689 0 0 1-1.49 5.655l-7.954 9.48a2.518 2.518 0 0 1-3.857 0L2.12 12.37A6.683 6.683 0 0 1 .627 6.714 6.757 6.757 0 0 1 5.21 1.57zm3.12 1.803a4.757 4.757 0 0 0-5.74 3.725l-.001.002a4.684 4.684 0 0 0 1.049 3.969l.009.01 7.958 9.485a.518.518 0 0 0 .79 0l7.968-9.495a4.688 4.688 0 0 0 1.049-3.965 4.803 4.803 0 0 0-3.931-3.794 4.74 4.74 0 0 0-4.023 1.256l-.008.008a2.123 2.123 0 0 1-2.9 0l-.007-.007a4.757 4.757 0 0 0-2.214-1.194z"></path>
  </symbol>

  <symbol id="duration" viewBox="0 0 16 16">
    <path d="M8 1.5a6.5 6.5 0 1 0 0 13 6.5 6.5 0 0 0 0-13zM0 8a8 8 0 1 1 16 0A8 8 0 0 1 0 8z"></path>
    <path d="M8 3.25a.75.75 0 0 1 .75.75v3.25H11a.75.75 0 0 1 0 1.5H7.25V4A.75.75 0 0 1 8 3.25z"></path>
  </symbol>

  <symbol id="eyes" viewBox="0 0 16 16">
    <g clip-rule="evenodd" fill="currentColor" fill-rule="evenodd">
      <path d="M13 10a3 3 0 11-6 0 3 3 0 016 0zm-1.5 0a1.5 1.5 0 11-3 0 1.5 1.5 0 013 0z"></path>
      <path d="M19 10c0 3.5-5 6-9 6s-9-2.5-9-6 5-6 9-6 9 2.5 9 6zm-1.5 0c0 .983-.72 2.084-2.279 3.03-1.516.92-3.497 1.47-5.221 1.47-1.725 0-3.705-.55-5.222-1.47C3.22 12.084 2.5 10.983 2.5 10c0-.983.72-2.084 2.278-3.03C6.295 6.05 8.275 5.5 10 5.5c1.724 0 3.705.55 5.221 1.47 1.56.946 2.279 2.047 2.279 3.03z"></path>
    </g>
  </symbol>

  <symbol id="eyes-hide" viewBox="0 0 16 16">
    <g clip-rule="evenodd" fill="currentColor" fill-rule="evenodd">
      <path d="M9.964 5.5A.75.75 0 019.958 4a11.921 11.921 0 015.918 1.578C17.566 6.558 19 8.068 19 10c0 1.003-.393 1.901-.999 2.659a.75.75 0 11-1.171-.937c.442-.553.67-1.13.67-1.722 0-1.13-.858-2.245-2.376-3.125A10.411 10.411 0 009.964 5.5zM4.124 14.422C5.844 15.42 8.036 16 10 16c1.605 0 3.355-.388 4.873-1.066l.847.846a.75.75 0 101.06-1.06L5.28 3.22a.75.75 0 00-1.06 1.06l.823.824c-.974.445-1.87 1.02-2.57 1.712C1.606 7.672 1 8.752 1 10c0 1.932 1.433 3.443 3.124 4.422zM8.5 10a1.5 1.5 0 002.53 1.09L8.91 8.97c-.254.269-.41.631-.41 1.03zM7 10a3 3 0 005.09 2.151l1.635 1.635c-1.201.458-2.523.714-3.725.714-1.702 0-3.635-.513-5.124-1.375C3.358 12.245 2.5 11.13 2.5 10c0-.731.35-1.448 1.028-2.117.66-.653 1.593-1.217 2.66-1.635l1.66 1.661A2.99 2.99 0 007 10z"></path>
    </g>
  </symbol>

  <symbol id="actions" viewBox="0 0 24 24">
    <path d="M4.5 13.5a1.5 1.5 0 1 0 0-3 1.5 1.5 0 0 0 0 3zm15 0a1.5 1.5 0 1 0 0-3 1.5 1.5 0 0 0 0 3zm-7.5 0a1.5 1.5 0 1 0 0-3 1.5 1.5 0 0 0 0 3z"></path>
  </symbol>

  <symbol id="delete" viewBox="0 0 24 24" fill="none">
    <g id="SVGRepo_bgCarrier" stroke-width="0"></g>
    <g id="SVGRepo_tracerCarrier" stroke-linecap="round" stroke-linejoin="round"></g>
    <g id="SVGRepo_iconCarrier">
      <path d="M10 11V17" stroke="#ffffff" stroke-width="2" stroke-linecap="round" stroke-linejoin="round"></path>
      <path d="M14 11V17" stroke="#ffffff" stroke-width="2" stroke-linecap="round" stroke-linejoin="round"></path>
      <path d="M4 7H20" stroke="#ffffff" stroke-width="2" stroke-linecap="round" stroke-linejoin="round"></path>
      <path d="M6 7H12H18V18C18 19.6569 16.6569 21 15 21H9C7.34315 21 6 19.6569 6 18V7Z" stroke="#ffffff" stroke-width="2" stroke-linecap="round" stroke-linejoin="round"></path>
      <path d="M9 5C9 3.89543 9.89543 3 11 3H13C14.1046 3 15 3.89543 15 5V7H9V5Z" stroke="#ffffff" stroke-width="2" stroke-linecap="round" stroke-linejoin="round"></path>
    </g>
  </symbol>

  <symbol id="list" viewBox="0 0 24 24" fill="#000000" stroke="#000000" transform="matrix(1, 0, 0, 1, 0, 0)rotate(0)">
    <g id="SVGRepo_bgCarrier" stroke-width="0"></g>
    <g id="SVGRepo_tracerCarrier" stroke-linecap="round" stroke-linejoin="round"></g>
    <g id="SVGRepo_iconCarrier">
      <g id="Edit / List_Add">
        <path id="Vector" d="M3 17H10M15 16H18M18 16H21M18 16V19M18 16V13M3 12H14M3 7H14" stroke="#ffffff" stroke-width="2" stroke-linecap="round" stroke-linejoin="round"></path>
      </g>
    </g>
  </symbol>

  <!-- TODO-->
  <symbol id="plus" >
    <g id="SVGRepo_bgCarrier" stroke-width="0"></g>
    <g id="SVGRepo_tracerCarrier" stroke-linecap="round" stroke-linejoin="round"></g>
    <g id="SVGRepo_iconCarrier"><path d="M959.018 208.158c0.23-2.721 0.34-5.45 0.34-8.172 0-74.93-60.96-135.89-135.89-135.89-1.54 0-3.036 0.06-6.522 0.213l-611.757-0.043c-1.768-0.085-3.563-0.17-5.424-0.17-74.812 0-135.67 60.84-135.67 135.712l0.188 10.952h-0.306l0.391 594.972-0.162 20.382c0 74.03 60.22 134.25 134.24 134.25 1.668 0 7.007-0.239 7.1-0.239l608.934 0.085c2.985 0.357 6.216 0.468 9.55 0.468 35.815 0 69.514-13.954 94.879-39.302 25.373-25.34 39.344-58.987 39.344-94.794l-0.145-12.015h0.918l-0.008-606.41z m-757.655 693.82l-2.585-0.203c-42.524 0-76.146-34.863-76.537-79.309V332.671H900.79l0.46 485.186-0.885 2.865c-0.535 1.837-0.8 3.58-0.8 5.17 0 40.382-31.555 73.766-71.852 76.002l-10.816 0.621v-0.527l-615.533-0.01zM900.78 274.424H122.3l-0.375-65.934 0.85-2.924c0.52-1.82 0.782-3.63 0.782-5.247 0-42.236 34.727-76.665 78.179-76.809l0.45-0.068 618.177 0.018 2.662 0.203c42.329 0 76.767 34.439 76.767 76.768 0 1.326 0.196 2.687 0.655 4.532l0.332 0.884v68.577z" fill=""></path>
      <path d="M697.67 471.435c-7.882 0-15.314 3.078-20.918 8.682l-223.43 223.439L346.599 596.84c-5.544-5.603-12.95-8.69-20.842-8.69s-15.323 3.078-20.918 8.665c-5.578 5.518-8.674 12.9-8.7 20.79-0.017 7.908 3.07 15.357 8.69 20.994l127.55 127.558c5.57 5.56 13.01 8.622 20.943 8.622 7.925 0 15.364-3.06 20.934-8.63l244.247-244.247c5.578-5.511 8.674-12.883 8.7-20.783 0.017-7.942-3.079-15.408-8.682-20.986-5.552-5.612-12.958-8.698-20.85-8.698z" fill=""></path></g>
  </symbol>

  <symbol id="playlist" viewBox="0 0 24 24" fill="#c3c3c3">
    <path d="M6 3h15v15.167a3.5 3.5 0 1 1-3.5-3.5H19V5H8v13.167a3.5 3.5 0 1 1-3.5-3.5H6V3zm0 13.667H4.5a1.5 1.5 0 1 0 1.5 1.5v-1.5zm13 0h-1.5a1.5 1.5 0 1 0 1.5 1.5v-1.5z"></path>
  </symbol>

</svg>
