<svg aria-hidden="true" style="position: absolute; width: 0; height: 0; overflow: hidden;" version="1.1" xmlns="http://www.w3.org/2000/svg">
  <symbol id="icon-home" viewBox="0 0 32 32">
    <title>home</title>
    <path d="M32 18.451l-16-12.42-16 12.42v-5.064l16-12.42 16 12.42zM28 18v12h-8v-8h-8v8h-8v-12l12-9z"></path>
  </symbol>

  <symbol id="shuffle" viewBox="0 0 16 16">
    <path d="M13.151.922a.75.75 0 1 0-1.06 1.06L13.109 3H11.16a3.75 3.75 0 0 0-2.873 1.34l-6.173 7.356A2.25 2.25 0 0 1 .39 12.5H0V14h.391a3.75 3.75 0 0 0 2.873-1.34l6.173-7.356a2.25 2.25 0 0 1 1.724-.804h1.947l-1.017 1.018a.75.75 0 0 0 1.06 1.06L15.98 3.75 13.15.922zM.391 3.5H0V2h.391c1.109 0 2.16.49 2.873 1.34L4.89 5.277l-.979 1.167-1.796-2.14A2.25 2.25 0 0 0 .39 3.5z"></path>
    <path d="m7.5 10.723.98-1.167.957 1.14a2.25 2.25 0 0 0 1.724.804h1.947l-1.017-1.018a.75.75 0 1 1 1.06-1.06l2.829 2.828-2.829 2.828a.75.75 0 1 1-1.06-1.06L13.109 13H11.16a3.75 3.75 0 0 1-2.873-1.34l-.787-.938z"></path>
  </symbol>

  <symbol id="prev" viewBox="0 0 16 16">
    <path d="M3.3 1a.7.7 0 0 1 .7.7v5.15l9.95-5.744a.7.7 0 0 1 1.05.606v12.575a.7.7 0 0 1-1.05.607L4 9.149V14.3a.7.7 0 0 1-.7.7H1.7a.7.7 0 0 1-.7-.7V1.7a.7.7 0 0 1 .7-.7h1.6z"></path>
  </symbol>

  <symbol id="next" viewBox="0 0 16 16">
    <path d="M12.7 1a.7.7 0 0 0-.7.7v5.15L2.05 1.107A.7.7 0 0 0 1 1.712v12.575a.7.7 0 0 0 1.05.607L12 9.149V14.3a.7.7 0 0 0 .7.7h1.6a.7.7 0 0 0 .7-.7V1.7a.7.7 0 0 0-.7-.7h-1.6z"></path>
  </symbol>

  <symbol id="play" viewBox="0 0 16 16">
    <path d="M3 1.713a.7.7 0 0 1 1.05-.607l10.89 6.288a.7.7 0 0 1 0 1.212L4.05 14.894A.7.7 0 0 1 3 14.288V1.713z"></path>
  </symbol>

  <symbol id="stop" viewBox="0 0 16 16">
    <path d="M2.7 1a.7.7 0 0 0-.7.7v12.6a.7.7 0 0 0 .7.7h2.6a.7.7 0 0 0 .7-.7V1.7a.7.7 0 0 0-.7-.7H2.7zm8 0a.7.7 0 0 0-.7.7v12.6a.7.7 0 0 0 .7.7h2.6a.7.7 0 0 0 .7-.7V1.7a.7.7 0 0 0-.7-.7h-2.6z"></path>
  </symbol>

  <symbol id="repeat" viewBox="0 0 16 16">
    <path d="M0 4.75A3.75 3.75 0 0 1 3.75 1h8.5A3.75 3.75 0 0 1 16 4.75v5a3.75 3.75 0 0 1-3.75 3.75H9.81l1.018 1.018a.75.75 0 1 1-1.06 1.06L6.939 12.75l2.829-2.828a.75.75 0 1 1 1.06 1.06L9.811 12h2.439a2.25 2.25 0 0 0 2.25-2.25v-5a2.25 2.25 0 0 0-2.25-2.25h-8.5A2.25 2.25 0 0 0 1.5 4.75v5A2.25 2.25 0 0 0 3.75 12H5v1.5H3.75A3.75 3.75 0 0 1 0 9.75v-5z"></path>
  </symbol>

  <symbol id="volume" viewBox="0 0 16 16">
    <path d="M9.741.85a.75.75 0 0 1 .375.65v13a.75.75 0 0 1-1.125.65l-6.925-4a3.642 3.642 0 0 1-1.33-4.967 3.639 3.639 0 0 1 1.33-1.332l6.925-4a.75.75 0 0 1 .75 0zm-6.924 5.3a2.139 2.139 0 0 0 0 3.7l5.8 3.35V2.8l-5.8 3.35zm8.683 4.29V5.56a2.75 2.75 0 0 1 0 4.88z"></path>
    <path d="M11.5 13.614a5.752 5.752 0 0 0 0-11.228v1.55a4.252 4.252 0 0 1 0 8.127v1.55z"></path>
  </symbol>

  <symbol id="unmute" viewBox="0 0 16 16">
    <path d="M13.86 5.47a.75.75 0 0 0-1.061 0l-1.47 1.47-1.47-1.47A.75.75 0 0 0 8.8 6.53L10.269 8l-1.47 1.47a.75.75 0 1 0 1.06 1.06l1.47-1.47 1.47 1.47a.75.75 0 0 0 1.06-1.06L12.39 8l1.47-1.47a.75.75 0 0 0 0-1.06z"></path>
    <path d="M10.116 1.5A.75.75 0 0 0 8.991.85l-6.925 4a3.642 3.642 0 0 0-1.33 4.967 3.639 3.639 0 0 0 1.33 1.332l6.925 4a.75.75 0 0 0 1.125-.649v-1.906a4.73 4.73 0 0 1-1.5-.694v1.3L2.817 9.852a2.141 2.141 0 0 1-.781-2.92c.187-.324.456-.594.78-.782l5.8-3.35v1.3c.45-.313.956-.55 1.5-.694V1.5z"></path>
  </symbol>

  <symbol id="like" viewBox="0 0 24 24">
    <path d="M5.21 1.57a6.757 6.757 0 0 1 6.708 1.545.124.124 0 0 0 .165 0 6.741 6.741 0 0 1 5.715-1.78l.004.001a6.802 6.802 0 0 1 5.571 5.376v.003a6.689 6.689 0 0 1-1.49 5.655l-7.954 9.48a2.518 2.518 0 0 1-3.857 0L2.12 12.37A6.683 6.683 0 0 1 .627 6.714 6.757 6.757 0 0 1 5.21 1.57zm3.12 1.803a4.757 4.757 0 0 0-5.74 3.725l-.001.002a4.684 4.684 0 0 0 1.049 3.969l.009.01 7.958 9.485a.518.518 0 0 0 .79 0l7.968-9.495a4.688 4.688 0 0 0 1.049-3.965 4.803 4.803 0 0 0-3.931-3.794 4.74 4.74 0 0 0-4.023 1.256l-.008.008a2.123 2.123 0 0 1-2.9 0l-.007-.007a4.757 4.757 0 0 0-2.214-1.194z"></path>
  </symbol>

  <symbol id="filledLike" fill="#fff" viewBox="0 0 16 16">
    <path d="M15.724 4.22A4.313 4.313 0 0 0 12.192.814a4.269 4.269 0 0 0-3.622 1.13.837.837 0 0 1-1.14 0 4.272 4.272 0 0 0-6.21 5.855l5.916 7.05a1.128 1.128 0 0 0 1.727 0l5.916-7.05a4.228 4.228 0 0 0 .945-3.577z"></path>
  </symbol>

  <symbol id="duration" viewBox="0 0 16 16">
    <path d="M8 1.5a6.5 6.5 0 1 0 0 13 6.5 6.5 0 0 0 0-13zM0 8a8 8 0 1 1 16 0A8 8 0 0 1 0 8z"></path>
    <path d="M8 3.25a.75.75 0 0 1 .75.75v3.25H11a.75.75 0 0 1 0 1.5H7.25V4A.75.75 0 0 1 8 3.25z"></path>
  </symbol>

  <symbol id="eyes" viewBox="0 0 16 16">
    <g clip-rule="evenodd" fill="currentColor" fill-rule="evenodd">
      <path d="M13 10a3 3 0 11-6 0 3 3 0 016 0zm-1.5 0a1.5 1.5 0 11-3 0 1.5 1.5 0 013 0z"></path>
      <path d="M19 10c0 3.5-5 6-9 6s-9-2.5-9-6 5-6 9-6 9 2.5 9 6zm-1.5 0c0 .983-.72 2.084-2.279 3.03-1.516.92-3.497 1.47-5.221 1.47-1.725 0-3.705-.55-5.222-1.47C3.22 12.084 2.5 10.983 2.5 10c0-.983.72-2.084 2.278-3.03C6.295 6.05 8.275 5.5 10 5.5c1.724 0 3.705.55 5.221 1.47 1.56.946 2.279 2.047 2.279 3.03z"></path>
    </g>
  </symbol>

  <symbol id="eyes-hide" viewBox="0 0 16 16">
    <g clip-rule="evenodd" fill="currentColor" fill-rule="evenodd">
      <path d="M9.964 5.5A.75.75 0 019.958 4a11.921 11.921 0 015.918 1.578C17.566 6.558 19 8.068 19 10c0 1.003-.393 1.901-.999 2.659a.75.75 0 11-1.171-.937c.442-.553.67-1.13.67-1.722 0-1.13-.858-2.245-2.376-3.125A10.411 10.411 0 009.964 5.5zM4.124 14.422C5.844 15.42 8.036 16 10 16c1.605 0 3.355-.388 4.873-1.066l.847.846a.75.75 0 101.06-1.06L5.28 3.22a.75.75 0 00-1.06 1.06l.823.824c-.974.445-1.87 1.02-2.57 1.712C1.606 7.672 1 8.752 1 10c0 1.932 1.433 3.443 3.124 4.422zM8.5 10a1.5 1.5 0 002.53 1.09L8.91 8.97c-.254.269-.41.631-.41 1.03zM7 10a3 3 0 005.09 2.151l1.635 1.635c-1.201.458-2.523.714-3.725.714-1.702 0-3.635-.513-5.124-1.375C3.358 12.245 2.5 11.13 2.5 10c0-.731.35-1.448 1.028-2.117.66-.653 1.593-1.217 2.66-1.635l1.66 1.661A2.99 2.99 0 007 10z"></path>
    </g>
  </symbol>

  <symbol id="actions" viewBox="0 0 24 24">
    <path d="M4.5 13.5a1.5 1.5 0 1 0 0-3 1.5 1.5 0 0 0 0 3zm15 0a1.5 1.5 0 1 0 0-3 1.5 1.5 0 0 0 0 3zm-7.5 0a1.5 1.5 0 1 0 0-3 1.5 1.5 0 0 0 0 3z"></path>
  </symbol>

  <symbol id="delete" viewBox="0 0 24 24" fill="none">
    <g id="SVGRepo_bgCarrier" stroke-width="0"></g>
    <g id="SVGRepo_tracerCarrier" stroke-linecap="round" stroke-linejoin="round"></g>
    <g id="SVGRepo_iconCarrier">
      <path d="M10 11V17" stroke="#ffffff" stroke-width="2" stroke-linecap="round" stroke-linejoin="round"></path>
      <path d="M14 11V17" stroke="#ffffff" stroke-width="2" stroke-linecap="round" stroke-linejoin="round"></path>
      <path d="M4 7H20" stroke="#ffffff" stroke-width="2" stroke-linecap="round" stroke-linejoin="round"></path>
      <path d="M6 7H12H18V18C18 19.6569 16.6569 21 15 21H9C7.34315 21 6 19.6569 6 18V7Z" stroke="#ffffff" stroke-width="2" stroke-linecap="round" stroke-linejoin="round"></path>
      <path d="M9 5C9 3.89543 9.89543 3 11 3H13C14.1046 3 15 3.89543 15 5V7H9V5Z" stroke="#ffffff" stroke-width="2" stroke-linecap="round" stroke-linejoin="round"></path>
    </g>
  </symbol>

  <symbol id="list" viewBox="0 0 24 24" fill="#000000" stroke="#000000" transform="matrix(1, 0, 0, 1, 0, 0)rotate(0)">
    <g id="SVGRepo_bgCarrier" stroke-width="0"></g>
    <g id="SVGRepo_tracerCarrier" stroke-linecap="round" stroke-linejoin="round"></g>
    <g id="SVGRepo_iconCarrier">
      <g id="Edit / List_Add">
        <path id="Vector" d="M3 17H10M15 16H18M18 16H21M18 16V19M18 16V13M3 12H14M3 7H14" stroke="#ffffff" stroke-width="2" stroke-linecap="round" stroke-linejoin="round"></path>
      </g>
    </g>
  </symbol>

  <!-- TODO-->
  <symbol id="plus" >
    <g id="SVGRepo_bgCarrier" stroke-width="0"></g>
    <g id="SVGRepo_tracerCarrier" stroke-linecap="round" stroke-linejoin="round"></g>
    <g id="SVGRepo_iconCarrier"><path d="M959.018 208.158c0.23-2.721 0.34-5.45 0.34-8.172 0-74.93-60.96-135.89-135.89-135.89-1.54 0-3.036 0.06-6.522 0.213l-611.757-0.043c-1.768-0.085-3.563-0.17-5.424-0.17-74.812 0-135.67 60.84-135.67 135.712l0.188 10.952h-0.306l0.391 594.972-0.162 20.382c0 74.03 60.22 134.25 134.24 134.25 1.668 0 7.007-0.239 7.1-0.239l608.934 0.085c2.985 0.357 6.216 0.468 9.55 0.468 35.815 0 69.514-13.954 94.879-39.302 25.373-25.34 39.344-58.987 39.344-94.794l-0.145-12.015h0.918l-0.008-606.41z m-757.655 693.82l-2.585-0.203c-42.524 0-76.146-34.863-76.537-79.309V332.671H900.79l0.46 485.186-0.885 2.865c-0.535 1.837-0.8 3.58-0.8 5.17 0 40.382-31.555 73.766-71.852 76.002l-10.816 0.621v-0.527l-615.533-0.01zM900.78 274.424H122.3l-0.375-65.934 0.85-2.924c0.52-1.82 0.782-3.63 0.782-5.247 0-42.236 34.727-76.665 78.179-76.809l0.45-0.068 618.177 0.018 2.662 0.203c42.329 0 76.767 34.439 76.767 76.768 0 1.326 0.196 2.687 0.655 4.532l0.332 0.884v68.577z" fill=""></path>
      <path d="M697.67 471.435c-7.882 0-15.314 3.078-20.918 8.682l-223.43 223.439L346.599 596.84c-5.544-5.603-12.95-8.69-20.842-8.69s-15.323 3.078-20.918 8.665c-5.578 5.518-8.674 12.9-8.7 20.79-0.017 7.908 3.07 15.357 8.69 20.994l127.55 127.558c5.57 5.56 13.01 8.622 20.943 8.622 7.925 0 15.364-3.06 20.934-8.63l244.247-244.247c5.578-5.511 8.674-12.883 8.7-20.783 0.017-7.942-3.079-15.408-8.682-20.986-5.552-5.612-12.958-8.698-20.85-8.698z" fill=""></path></g>
  </symbol>

  <symbol id="playlist" viewBox="0 0 24 24" fill="#c3c3c3">
    <path d="M6 3h15v15.167a3.5 3.5 0 1 1-3.5-3.5H19V5H8v13.167a3.5 3.5 0 1 1-3.5-3.5H6V3zm0 13.667H4.5a1.5 1.5 0 1 0 1.5 1.5v-1.5zm13 0h-1.5a1.5 1.5 0 1 0 1.5 1.5v-1.5z"></path>
  </symbol>

  <symbol id="artist" viewBox="0 0 24 24">
    <path d="m13.363 10.474-.521.625a2.499 2.499 0 0 0 .67 3.766l.285.164a5.998 5.998 0 0 1 1.288-1.565l-.573-.33a.5.5 0 0 1-.134-.754l.52-.624a7.372 7.372 0 0 0 1.837-4.355 7.221 7.221 0 0 0-.29-2.489 5.644 5.644 0 0 0-3.116-3.424A5.771 5.771 0 0 0 6.753 2.87a5.7 5.7 0 0 0-1.19 2.047 7.22 7.22 0 0 0-.29 2.49 7.373 7.373 0 0 0 1.838 4.355l.518.622a.5.5 0 0 1-.134.753L3.5 15.444a5 5 0 0 0-2.5 4.33v2.231h13.54a5.981 5.981 0 0 1-1.19-2H3v-.23a3 3 0 0 1 1.5-2.6l3.995-2.308a2.5 2.5 0 0 0 .67-3.766l-.521-.625a5.146 5.146 0 0 1-1.188-4.918 3.71 3.71 0 0 1 .769-1.334 3.769 3.769 0 0 1 5.556 0c.346.386.608.84.768 1.334.157.562.22 1.146.187 1.728a5.379 5.379 0 0 1-1.373 3.188zm7.641-1.173a1 1 0 0 0-1 1v4.666h-1a3 3 0 1 0 3 3v-7.666a.999.999 0 0 0-1.003-1h.003zm-1 8.666a1 1 0 1 1-1-1h1v1z"></path>
  </symbol>

  <svg id="search" viewBox="0 0 32 32">
    <path fill-rule="evenodd" clip-rule="evenodd" d="M8.302 15.16a6.872 6.872 0 1 1 13.745 0 6.872 6.872 0 0 1-13.745 0Zm6.873-8.873a8.872 8.872 0 1 0 5.588 15.764l2.869 2.869a1 1 0 1 0 1.414-1.415l-2.881-2.881a8.872 8.872 0 0 0-6.99-14.337Z" fill="currentColor"></path>
  </svg>

  <svg id="user-icon" width="20" height="20" viewBox="0 0 16 16" fill="#fff">
    <path d="M6.233.371a4.388 4.388 0 0 1 5.002 1.052c.421.459.713.992.904 1.554.143.421.263 1.173.22 1.894-.078 1.322-.638 2.408-1.399 3.316l-.127.152a.75.75 0 0 0 .201 1.13l2.209 1.275a4.75 4.75 0 0 1 2.375 4.114V16H.382v-1.143a4.75 4.75 0 0 1 2.375-4.113l2.209-1.275a.75.75 0 0 0 .201-1.13l-.126-.152c-.761-.908-1.322-1.994-1.4-3.316-.043-.721.077-1.473.22-1.894a4.346 4.346 0 0 1 .904-1.554c.411-.448.91-.807 1.468-1.052zM8 1.5a2.888 2.888 0 0 0-2.13.937 2.85 2.85 0 0 0-.588 1.022c-.077.226-.175.783-.143 1.323.054.921.44 1.712 1.051 2.442l.002.001.127.153a2.25 2.25 0 0 1-.603 3.39l-2.209 1.275A3.25 3.25 0 0 0 1.902 14.5h12.196a3.25 3.25 0 0 0-1.605-2.457l-2.209-1.275a2.25 2.25 0 0 1-.603-3.39l.127-.153.002-.001c.612-.73.997-1.52 1.052-2.442.032-.54-.067-1.097-.144-1.323a2.85 2.85 0 0 0-.588-1.022A2.888 2.888 0 0 0 8 1.5z"></path>
  </svg>

  <symbol id="close" viewBox="0 0 24 24">
    <path d="M7 7L17 17M17 7L7 17" stroke="#808080" stroke-linecap="round"></path>
  </symbol>

  <svg id="evenodd" viewBox="0 0 16 16">
    <path d="M3 8a1.5 1.5 0 1 1-3 0 1.5 1.5 0 0 1 3 0zm6.5 0a1.5 1.5 0 1 1-3 0 1.5 1.5 0 0 1 3 0zM16 8a1.5 1.5 0 1 1-3 0 1.5 1.5 0 0 1 3 0z"></path>
  </svg>

<!--  Navbar Icons  -->
  <symbol id="nav_home" viewBox="0 0 32 32" fill="#fff">
    <path fill-rule="evenodd" clip-rule="evenodd" d="m18.962 8.524.039.022 1.99 1.119.044.024c.816.459 1.493.839 2.019 1.207.554.388 1.007.807 1.34 1.376.333.569.476 1.17.543 1.842.063.639.063 1.415.063 2.352v2.461c0 1.153 0 2.118-.103 2.885-.109.811-.35 1.549-.943 2.142s-1.33.834-2.142.943C21.045 25 20.08 25 18.926 25h-5.852c-1.153 0-2.119 0-2.886-.103-.81-.109-1.548-.35-2.142-.943-.593-.593-.834-1.33-.943-2.142C7 21.045 7 20.079 7 18.926V16.46c0-.935 0-1.71.064-2.348.066-.672.21-1.272.541-1.84.332-.568.785-.987 1.337-1.375.525-.368 1.2-.749 2.015-1.208l.042-.024 1.976-1.114.04-.022c.582-.328 1.08-.609 1.517-.802.466-.207.93-.346 1.455-.347.525 0 .99.139 1.457.345.437.193.935.472 1.518.8Zm-2.326 1.03c-.318-.14-.498-.175-.647-.175-.15 0-.33.035-.648.176-.337.15-.751.38-1.383.737l-1.977 1.114c-.868.49-1.455.822-1.89 1.127-.416.292-.623.514-.759.747-.136.234-.228.523-.278 1.029C9 14.837 9 15.512 9 16.509v2.348c0 1.24.002 2.07.085 2.689.08.589.216.834.375.994.16.16.405.296.995.375.618.083 1.448.085 2.688.085h5.714c1.24 0 2.07-.002 2.689-.085.589-.08.834-.215.994-.375.16-.16.296-.405.375-.994.083-.619.085-1.448.085-2.689v-2.342c0-.998-.001-1.675-.054-2.203-.05-.507-.142-.797-.278-1.03-.137-.233-.345-.455-.762-.748-.435-.304-1.024-.636-1.894-1.126l-1.99-1.118c-.634-.356-1.048-.587-1.386-.736Z"></path>
  </symbol>

  <symbol id="nav_col" viewBox="0 0 32 32" fill="#fff">
    <path fill-rule="evenodd" clip-rule="evenodd" d="M20.679 8.82a.9.9 0 1 0-1.765.352l2.8 14a.9.9 0 0 0 1.765-.352l-2.8-14Zm-10.484.176a.9.9 0 1 0-1.8 0v14a.9.9 0 1 0 1.8 0v-14Zm3.5 0a.9.9 0 0 0-1.8 0v14a.9.9 0 1 0 1.8 0v-14Zm2.6-.9a.9.9 0 0 1 .9.9v14a.9.9 0 1 1-1.8 0v-14a.9.9 0 0 1 .9-.9Z"></path>
  </symbol>

  <symbol id="nav_top" viewBox="0 0 32 32" fill="none">
    <path d="M24 15c0 3.771 0 5.657-1.172 6.828C21.657 23 19.771 23 16 23c-3.771 0-5.657 0-6.828-1.172C8 20.657 8 18.771 8 15v-2.206c0-.982 0-1.473.3-1.604.3-.13.66.204 1.381.874l.55.51c.72.67 1.08 1.005 1.507.98.427-.026.745-.4 1.38-1.151l1.356-1.6c.708-.837 1.063-1.255 1.526-1.255.464 0 .818.418 1.526 1.255l1.355 1.6c.636.75.954 1.125 1.381 1.15.427.026.787-.309 1.507-.978l.55-.511c.72-.67 1.08-1.005 1.38-.874.301.131.301.623.301 1.606V15Z" stroke="#fff" stroke-width="1.6"></path>
  </symbol>

  <symbol id="nav_top_kaz" viewBox="0 0 32 32" fill="none">
    <path d="M7 16c5.104-1.677 7.213-3.49 9-9 1.785 5.613 3.964 7.335 9 9-5.407 1.449-7.348 3.452-9 9-1.996-5.568-4.023-7.598-9-9Z" stroke="#fff" stroke-width="1.7" stroke-linejoin="round"></path>
  </symbol>

  <symbol id="nav_books" viewBox="0 0 32 32" fill="none">
    <path fill-rule="evenodd" clip-rule="evenodd" d="M22.75 9.5c.5 0 .774.002.964.028h.007l.001.008c.026.19.028.464.028.964V19c0 .5-.002.774-.028.964v.007l-.008.001c-.19.026-.464.028-.964.028H18.8a3.6 3.6 0 0 0-1.55.351v-8.518a2.3 2.3 0 0 1 .696-1.643 2.435 2.435 0 0 1 1.704-.69h3.1ZM16 24.468a1 1 0 0 1-1.25-.968c0-.391-.158-.77-.447-1.054A1.577 1.577 0 0 0 13.2 22H9.196c-.424 0-.837 0-1.176-.046-.384-.051-.821-.177-1.184-.54-.363-.363-.489-.8-.54-1.184-.046-.34-.046-.752-.046-1.176v-8.608c0-.424 0-.837.046-1.176.051-.384.177-.821.54-1.184.363-.363.8-.489 1.183-.54.34-.046.753-.046 1.177-.046h3.154c1.16 0 2.278.452 3.104 1.262.205.2.387.419.546.651A4.435 4.435 0 0 1 19.65 7.5h3.154c.425 0 .837 0 1.177.046.383.051.82.177 1.183.54.363.363.489.8.54 1.184.046.34.046.752.046 1.176v8.608c0 .425 0 .837-.046 1.177-.051.383-.177.82-.54 1.183-.363.363-.8.489-1.184.54-.34.046-.752.046-1.176.046H18.8c-.417 0-.814.163-1.103.446a1.476 1.476 0 0 0-.447 1.054 1 1 0 0 1-1.25.968Zm-1.25-12.635v8.518A3.593 3.593 0 0 0 13.2 20H9.25c-.5 0-.774-.002-.964-.028h-.007l-.001-.008c-.026-.19-.028-.464-.028-.964v-8.5c0-.5.002-.774.028-.964v-.007l.008-.001c.19-.026.464-.028.964-.028h3.1c.643 0 1.255.25 1.704.69a2.3 2.3 0 0 1 .696 1.643Z" fill="#fff"></path>
  </symbol>

  <symbol id="home_play" viewBox="0 0 38 38" fill="none">
    <path fill-rule="evenodd" clip-rule="evenodd" d="M19 38C29.4934 38 38 29.4934 38 19C38 8.50659 29.4934 0 19 0C8.50659 0 0 8.50659 0 19C0 29.4934 8.50659 38 19 38ZM15 14.8443C15 13.2871 16.701 12.3273 18.0339 13.1323L24.9152 17.288C26.2033 18.0659 26.2033 19.9341 24.9152 20.712L18.0339 24.8677C16.701 25.6727 15 24.7129 15 23.1557V14.8443Z" fill="white"></path>
  </symbol>

  <symbol id="profile" viewBox="0 0 32 32" fill="#fff">
    <path fill-rule="evenodd" clip-rule="evenodd" d="M16 6.9a9.1 9.1 0 0 0-6.915 15.016 9.905 9.905 0 0 1 3.648-2.264 4.9 4.9 0 1 1 6.534 0 9.901 9.901 0 0 1 3.648 2.264A9.1 9.1 0 0 0 16 6.9Zm5.615 16.262A8.07 8.07 0 0 0 16 20.9a8.07 8.07 0 0 0-5.615 2.262A9.06 9.06 0 0 0 16 25.1a9.06 9.06 0 0 0 5.615-1.938ZM5.1 16C5.1 9.98 9.98 5.1 16 5.1c6.02 0 10.9 4.88 10.9 10.9 0 6.02-4.88 10.9-10.9 10.9-6.02 0-10.9-4.88-10.9-10.9ZM16 12.9a3.1 3.1 0 1 0 0 6.2 3.1 3.1 0 0 0 0-6.2Z"></path>
  </symbol>

  <symbol id="logout" viewBox="0 0 32 32" fill="#fff">
    <path fill-rule="evenodd" clip-rule="evenodd" d="M16.11 7.994a1 1 0 1 0-.22-1.988l-.562.062-.233.026c-2.284.252-3.71.409-4.86.999a7 7 0 0 0-3.343 3.733c-.46 1.207-.46 2.642-.46 4.94v.469c0 2.301 0 3.738.46 4.946a7 7 0 0 0 3.35 3.734c1.15.59 2.579.745 4.866.994l.233.025.55.06a1 1 0 1 0 .217-1.988l-.55-.06c-2.6-.283-3.625-.412-4.405-.811a5 5 0 0 1-2.392-2.667c-.312-.819-.329-1.853-.329-4.468 0-2.611.016-3.644.328-4.461a5 5 0 0 1 2.389-2.667c.778-.4 1.803-.53 4.399-.816l.562-.062Zm3.683 12.799a1 1 0 1 0 1.414 1.414l5.5-5.5a1 1 0 0 0 0-1.414l-5.5-5.5a1 1 0 1 0-1.414 1.414L23.586 15H14a1 1 0 1 0 0 2h9.586l-3.793 3.793Z" fill="currentColor"></path>
  </symbol>

  <symbol id="explicit" viewBox="0 0 10 10">
    <path fill="#fff" fill-opacity="0.5" fill-rule="evenodd" d="M2 0a2 2 0 00-2 2v6a2 2 0 002 2h6a2 2 0 002-2V2a2 2 0 00-2-2H2zm1.889 6.667h3.333v1.11H2.778V2.232h4.43v1.111h-3.32v1.102h2.22v1.112h-2.22v1.11z" clip-rule="evenodd"></path>
  </symbol>

  <symbol id="clipboard" viewBox="0 0 32 32">
    <path fill-rule="evenodd" clip-rule="evenodd" d="M8 7H17V10V20H13H8L8 7ZM13 22H8C6.89543 22 6 21.1046 6 20V7C6 5.89543 6.89543 5 8 5H17C18.1046 5 19 5.89543 19 7V10H24C25.1046 10 26 10.8954 26 12V25C26 26.1046 25.1046 27 24 27H15C13.8954 27 13 26.1046 13 25V22ZM15 22V25H24V12H19V20C19 21.1046 18.1046 22 17 22H15Z" fill="#fff"></path>
  </symbol>

  <symbol id="change" viewBox="0 0 31 31">
    <path d="M17.318 1.975a3.329 3.329 0 1 1 4.707 4.707L8.451 20.256c-.49.49-1.082.867-1.735 1.103L2.34 22.94a1 1 0 0 1-1.28-1.28l1.581-4.376a4.726 4.726 0 0 1 1.103-1.735L17.318 1.975zm3.293 1.414a1.329 1.329 0 0 0-1.88 0L5.159 16.963c-.283.283-.5.624-.636 1l-.857 2.372 2.371-.857a2.726 2.726 0 0 0 1.001-.636L20.611 5.268a1.329 1.329 0 0 0 0-1.879z"></path>
  </symbol>
</svg>
