
<svg aria-hidden="true" style="position: absolute; width: 0; height: 0; overflow: hidden;" version="1.1" xmlns="http://www.w3.org/2000/svg">
  <symbol id="icon-home" viewBox="0 0 32 32">
    <title>home</title>
    <path d="M32 18.451l-16-12.42-16 12.42v-5.064l16-12.42 16 12.42zM28 18v12h-8v-8h-8v8h-8v-12l12-9z"></path>
  </symbol>

  <symbol id="shuffle" viewBox="0 0 16 16">
    <path d="M13.151.922a.75.75 0 1 0-1.06 1.06L13.109 3H11.16a3.75 3.75 0 0 0-2.873 1.34l-6.173 7.356A2.25 2.25 0 0 1 .39 12.5H0V14h.391a3.75 3.75 0 0 0 2.873-1.34l6.173-7.356a2.25 2.25 0 0 1 1.724-.804h1.947l-1.017 1.018a.75.75 0 0 0 1.06 1.06L15.98 3.75 13.15.922zM.391 3.5H0V2h.391c1.109 0 2.16.49 2.873 1.34L4.89 5.277l-.979 1.167-1.796-2.14A2.25 2.25 0 0 0 .39 3.5z"></path>
    <path d="m7.5 10.723.98-1.167.957 1.14a2.25 2.25 0 0 0 1.724.804h1.947l-1.017-1.018a.75.75 0 1 1 1.06-1.06l2.829 2.828-2.829 2.828a.75.75 0 1 1-1.06-1.06L13.109 13H11.16a3.75 3.75 0 0 1-2.873-1.34l-.787-.938z"></path>
  </symbol>

  <symbol id="prev" viewBox="0 0 16 16">
    <path d="M3.3 1a.7.7 0 0 1 .7.7v5.15l9.95-5.744a.7.7 0 0 1 1.05.606v12.575a.7.7 0 0 1-1.05.607L4 9.149V14.3a.7.7 0 0 1-.7.7H1.7a.7.7 0 0 1-.7-.7V1.7a.7.7 0 0 1 .7-.7h1.6z"></path>
  </symbol>

  <symbol id="next" viewBox="0 0 16 16">
    <path d="M12.7 1a.7.7 0 0 0-.7.7v5.15L2.05 1.107A.7.7 0 0 0 1 1.712v12.575a.7.7 0 0 0 1.05.607L12 9.149V14.3a.7.7 0 0 0 .7.7h1.6a.7.7 0 0 0 .7-.7V1.7a.7.7 0 0 0-.7-.7h-1.6z"></path>
  </symbol>

  <symbol id="play" viewBox="0 0 16 16">
    <path d="M3 1.713a.7.7 0 0 1 1.05-.607l10.89 6.288a.7.7 0 0 1 0 1.212L4.05 14.894A.7.7 0 0 1 3 14.288V1.713z"></path>
  </symbol>

  <symbol id="stop" viewBox="0 0 16 16">
    <path d="M2.7 1a.7.7 0 0 0-.7.7v12.6a.7.7 0 0 0 .7.7h2.6a.7.7 0 0 0 .7-.7V1.7a.7.7 0 0 0-.7-.7H2.7zm8 0a.7.7 0 0 0-.7.7v12.6a.7.7 0 0 0 .7.7h2.6a.7.7 0 0 0 .7-.7V1.7a.7.7 0 0 0-.7-.7h-2.6z"></path>
  </symbol>

  <symbol id="repeat" viewBox="0 0 16 16">
    <path d="M0 4.75A3.75 3.75 0 0 1 3.75 1h8.5A3.75 3.75 0 0 1 16 4.75v5a3.75 3.75 0 0 1-3.75 3.75H9.81l1.018 1.018a.75.75 0 1 1-1.06 1.06L6.939 12.75l2.829-2.828a.75.75 0 1 1 1.06 1.06L9.811 12h2.439a2.25 2.25 0 0 0 2.25-2.25v-5a2.25 2.25 0 0 0-2.25-2.25h-8.5A2.25 2.25 0 0 0 1.5 4.75v5A2.25 2.25 0 0 0 3.75 12H5v1.5H3.75A3.75 3.75 0 0 1 0 9.75v-5z"></path>
  </symbol>

  <symbol id="volume" viewBox="0 0 16 16">
    <path d="M9.741.85a.75.75 0 0 1 .375.65v13a.75.75 0 0 1-1.125.65l-6.925-4a3.642 3.642 0 0 1-1.33-4.967 3.639 3.639 0 0 1 1.33-1.332l6.925-4a.75.75 0 0 1 .75 0zm-6.924 5.3a2.139 2.139 0 0 0 0 3.7l5.8 3.35V2.8l-5.8 3.35zm8.683 4.29V5.56a2.75 2.75 0 0 1 0 4.88z"></path>
    <path d="M11.5 13.614a5.752 5.752 0 0 0 0-11.228v1.55a4.252 4.252 0 0 1 0 8.127v1.55z"></path>
  </symbol>

  <symbol id="unmute" viewBox="0 0 16 16">
    <path d="M13.86 5.47a.75.75 0 0 0-1.061 0l-1.47 1.47-1.47-1.47A.75.75 0 0 0 8.8 6.53L10.269 8l-1.47 1.47a.75.75 0 1 0 1.06 1.06l1.47-1.47 1.47 1.47a.75.75 0 0 0 1.06-1.06L12.39 8l1.47-1.47a.75.75 0 0 0 0-1.06z"></path>
    <path d="M10.116 1.5A.75.75 0 0 0 8.991.85l-6.925 4a3.642 3.642 0 0 0-1.33 4.967 3.639 3.639 0 0 0 1.33 1.332l6.925 4a.75.75 0 0 0 1.125-.649v-1.906a4.73 4.73 0 0 1-1.5-.694v1.3L2.817 9.852a2.141 2.141 0 0 1-.781-2.92c.187-.324.456-.594.78-.782l5.8-3.35v1.3c.45-.313.956-.55 1.5-.694V1.5z"></path>
  </symbol>

  <symbol id="like" viewBox="0 0 24 24">
    <path d="M5.21 1.57a6.757 6.757 0 0 1 6.708 1.545.124.124 0 0 0 .165 0 6.741 6.741 0 0 1 5.715-1.78l.004.001a6.802 6.802 0 0 1 5.571 5.376v.003a6.689 6.689 0 0 1-1.49 5.655l-7.954 9.48a2.518 2.518 0 0 1-3.857 0L2.12 12.37A6.683 6.683 0 0 1 .627 6.714 6.757 6.757 0 0 1 5.21 1.57zm3.12 1.803a4.757 4.757 0 0 0-5.74 3.725l-.001.002a4.684 4.684 0 0 0 1.049 3.969l.009.01 7.958 9.485a.518.518 0 0 0 .79 0l7.968-9.495a4.688 4.688 0 0 0 1.049-3.965 4.803 4.803 0 0 0-3.931-3.794 4.74 4.74 0 0 0-4.023 1.256l-.008.008a2.123 2.123 0 0 1-2.9 0l-.007-.007a4.757 4.757 0 0 0-2.214-1.194z"></path>
  </symbol>

  <symbol id="duration" viewBox="0 0 16 16">
    <path d="M8 1.5a6.5 6.5 0 1 0 0 13 6.5 6.5 0 0 0 0-13zM0 8a8 8 0 1 1 16 0A8 8 0 0 1 0 8z"></path>
    <path d="M8 3.25a.75.75 0 0 1 .75.75v3.25H11a.75.75 0 0 1 0 1.5H7.25V4A.75.75 0 0 1 8 3.25z"></path>
  </symbol>
</svg>
